<?xml version="1.0" encoding="UTF-8" standalone="no"?>
<svg
   xmlns:dc="http://purl.org/dc/elements/1.1/"
   xmlns:cc="http://creativecommons.org/ns#"
   xmlns:rdf="http://www.w3.org/1999/02/22-rdf-syntax-ns#"
   xmlns:svg="http://www.w3.org/2000/svg"
   xmlns="http://www.w3.org/2000/svg"
   viewBox="0 0 571.78802 528"
   height="528"
   width="571.78802"
   xml:space="preserve"
   id="svg2"
   version="1.1"><metadata
     id="metadata8"><rdf:RDF><cc:Work
         rdf:about=""><dc:format>image/svg+xml</dc:format><dc:type
           rdf:resource="http://purl.org/dc/dcmitype/StillImage" /></cc:Work></rdf:RDF></metadata><defs
     id="defs6"><clipPath
       id="clipPath18"
       clipPathUnits="userSpaceOnUse"><path
         id="path16"
         d="M 0,396 H 428.841 V 0 H 0 Z" /></clipPath></defs><g
     transform="matrix(1.3333333,0,0,-1.3333333,0,528)"
     id="g10"><g
       id="g12"><g
         clip-path="url(#clipPath18)"
         id="g14"><g
           transform="translate(322.8892,97.0645)"
           id="g20"><path
             id="path22"
             style="fill:#000000;fill-opacity:1;fill-rule:nonzero;stroke:none"
             d="m 0,0 c -0.461,-14.13 -10.964,-24.89 -25.183,-25.369 -54.921,0 -109.86,-0.446 -164.778,0 -16.313,0.132 -26.781,11.799 -26.843,27.713 -0.041,10.439 0,20.88 0,31.32 v 59.588 c 40.632,-32.056 82.694,-18.423 104.516,-7.151 1.946,1.004 6.125,4.049 10.964,7.575 7.103,5.175 15.942,11.615 19.37,12.771 11.691,3.94 15.603,7.135 20.556,11.179 1.804,1.473 3.668,2.995 6.131,4.747 1.168,0.325 2.6,0.515 3.333,-0.16 0.847,-0.785 1.044,-2.882 0.5,-5.344 -0.675,-3.064 -3.255,-4.494 -6.522,-6.302 l -0.74,-0.412 c -3.132,-1.751 -6.468,-2.987 -10.001,-4.297 -2.553,-0.947 -5.193,-1.926 -7.73,-3.112 -6.533,-3.056 -12.244,-9.379 -14.21,-15.734 -1.861,-6.018 -0.415,-13.652 3.773,-19.924 3.932,-5.886 9.495,-9.572 15.264,-10.111 8.103,-0.763 14.59,1.484 19.855,6.856 2.69,2.743 3.996,7.33 3.493,12.27 -0.497,4.887 -2.624,9.037 -5.687,11.1 -3.109,2.093 -5.376,2.781 -8.971,2.652 -4.47,-0.134 -7.856,-1.175 -10.351,-3.183 -3.314,-2.665 -4.527,-7.256 -2.885,-10.915 1.645,-3.667 6.605,-5.332 9.515,-4.13 1.932,0.8 2.693,2.749 1.895,4.848 -0.74,1.946 -0.626,2.403 -0.491,2.502 0.715,0.527 2.002,0.422 2.995,-0.244 1.488,-0.999 1.828,-2.687 1.897,-3.604 0.15,-1.964 -0.613,-4.023 -1.944,-5.244 -2.874,-2.643 -7.484,-2.551 -10.781,-1.287 -3.142,1.205 -5.835,3.411 -7.388,6.057 -1.13,1.926 -2.19,4.971 -0.819,8.54 1.737,4.525 6.435,7.472 10.701,9.877 5.189,2.924 9.872,4.614 14.831,6.403 2.727,0.983 5.547,2.002 8.613,3.276 1.757,0.731 3.876,1.75 6.12,2.829 5.866,2.821 14.731,7.079 17.925,5.915 0.377,-0.138 0.602,-0.341 0.756,-0.684 0.913,-2.018 -8.951,-6.773 -13.692,-9.057 -7.751,-3.736 -12.548,-6.176 -13.472,-9.131 -0.288,-0.921 -0.193,-1.845 0.303,-2.717 1.174,-1.937 3.66,-1.402 17.101,2.485 6.172,1.785 16.3,4.712 18.941,4.475 0.139,-0.523 0.047,-0.882 -0.063,-1.147 -0.387,-0.94 -1.822,-2.407 -6.459,-4.068 l -1.747,-0.622 c -14.683,-5.222 -25.795,-9.675 -24.3,-15.454 0.04,-0.157 0.101,-0.306 0.181,-0.447 1.651,-2.877 6.55,-1.327 14.663,1.251 5.071,1.611 12.736,4.051 14.772,2.974 0.124,-0.064 0.134,-0.098 0.162,-0.187 0.073,-0.222 0.087,-0.435 -0.083,-0.755 -1.51,-2.84 -10.882,-5.493 -17.083,-7.248 -1.285,-0.364 -2.51,-0.711 -3.626,-1.043 -2.556,-0.762 -6.813,-2.858 -8.066,-5.518 -0.579,-1.228 -0.382,-2.236 -0.115,-2.866 1.245,-2.942 5.487,-1.675 10.396,-0.214 1.813,0.54 3.688,1.098 5.074,1.322 0.773,0.124 1.441,0.056 1.801,-0.047 -0.147,-0.138 -0.422,-0.351 -0.932,-0.635 -7.344,-4.086 -16.483,-9.172 -25.975,-11.64 -0.965,-0.251 -1.544,-1.237 -1.294,-2.202 0.212,-0.813 0.944,-1.352 1.747,-1.352 0.15,0 0.303,0.018 0.456,0.058 9.937,2.583 19.3,7.794 26.823,11.982 0.761,0.423 3.077,1.711 2.929,4.11 -0.059,0.946 -0.502,1.796 -1.247,2.391 -1.631,1.304 -4.15,1.019 -4.884,0.902 -1.617,-0.263 -3.606,-0.855 -5.529,-1.427 -1.664,-0.495 -4.221,-1.257 -5.636,-1.409 0.874,0.947 3.11,2.376 5.483,3.083 1.102,0.328 2.311,0.67 3.579,1.03 9.663,2.734 17.22,5.136 19.288,9.027 0.607,1.143 0.72,2.382 0.337,3.543 -0.306,1 -0.972,1.793 -1.926,2.294 -3.14,1.65 -8.985,-0.013 -17.544,-2.73 -3.262,-1.036 -7.958,-2.527 -10,-2.639 0.51,0.781 2.007,2.217 6.361,4.345 4.662,2.278 10.615,4.396 15.398,6.098 l 1.755,0.625 c 3.056,1.093 7.271,2.916 8.581,6.09 0.601,1.459 0.527,3.052 -0.215,4.608 -0.031,0.065 -0.065,0.128 -0.104,0.189 -1.568,2.479 -6.291,1.529 -22.903,-3.276 -4.039,-1.17 -9.223,-2.668 -12.042,-3.226 2.103,1.729 7.308,4.237 10.682,5.864 9.145,4.407 17.783,8.57 15.417,13.795 -0.55,1.225 -1.521,2.121 -2.809,2.592 -4.628,1.689 -13.182,-2.421 -20.73,-6.052 -2.199,-1.056 -4.275,-2.055 -5.942,-2.748 -2.986,-1.242 -5.765,-2.245 -8.451,-3.214 -5.106,-1.842 -9.927,-3.581 -15.38,-6.654 -4.815,-2.715 -10.132,-6.084 -12.299,-11.728 -1.472,-3.834 -1.089,-7.976 1.077,-11.665 1.988,-3.387 5.259,-6.086 9.209,-7.6 5.289,-2.029 10.989,-1.245 14.518,1.999 2.147,1.972 3.336,5.106 3.103,8.178 -0.204,2.671 -1.475,4.978 -3.488,6.329 -2.268,1.524 -5.209,1.585 -7.152,0.151 -2.566,-1.893 -1.287,-5.255 -0.74,-6.692 0.039,-0.103 0.06,-0.182 0.071,-0.238 -0.253,-0.091 -0.88,-0.182 -1.788,0.042 -1.098,0.274 -2.468,1.007 -3.021,2.241 -0.965,2.149 -0.168,4.996 1.854,6.623 1.859,1.495 4.54,2.277 8.196,2.387 2.828,0.082 4.366,-0.371 6.844,-2.04 2.151,-1.448 3.727,-4.693 4.111,-8.469 0.39,-3.826 -0.561,-7.419 -2.479,-9.376 -4.517,-4.608 -9.902,-6.443 -16.94,-5.789 -4.681,0.439 -9.272,3.545 -12.596,8.522 -3.599,5.389 -4.874,11.847 -3.326,16.851 1.683,5.441 6.623,10.879 12.29,13.53 2.402,1.123 4.97,2.076 7.454,2.996 3.507,1.3 7.132,2.644 10.508,4.532 l 0.728,0.403 c 3.575,1.981 7.273,4.028 8.3,8.685 0.403,1.827 1.056,6.339 -1.575,8.773 -1.646,1.521 -4.037,1.817 -7.108,0.887 -0.185,-0.056 -0.36,-0.142 -0.518,-0.254 -2.687,-1.899 -4.753,-3.585 -6.575,-5.073 -4.852,-3.961 -8.356,-6.822 -19.425,-10.554 -3.954,-1.332 -12.662,-7.676 -20.344,-13.275 -4.522,-3.294 -8.795,-6.407 -10.495,-7.286 -21.435,-11.069 -63.111,-24.518 -102.858,8.594 v 18.075 c 14.055,-13.016 33.148,-17.958 52.119,-14.035 23.49,4.857 42.227,20.981 59.043,37.127 4.633,4.447 10.471,12.162 17.508,12.314 5.93,0.128 9.654,-5.339 13.674,-8.826 5.518,-4.786 11.367,-5.944 17.766,-2.046 4.125,2.514 7.597,6.735 12.418,7.991 7.96,2.074 14.044,-5.597 18.607,-10.828 9.02,-10.339 17.536,-21.11 25.669,-32.159 L 0,71.185 C 0,47.502 0.772,23.674 0,0 m -216.804,141.003 c 3.428,-0.24 6.93,-1.462 10.281,-2.08 5.798,-1.069 11.694,-1.743 17.597,-1.552 15.133,0.491 28.728,7.09 37.851,19.307 6.49,8.691 9.6,18.592 12.841,28.781 2.448,7.696 15.102,30.83 24.186,16.23 5.586,-8.977 5.879,-20.15 15.625,-26.393 3.974,-2.546 7.683,-2.586 12.164,-1.705 9.288,1.827 11.002,-3.986 16.772,-9.334 9.279,-8.601 15.569,-0.377 23.768,4.75 8.634,5.398 19.171,-5.74 25.523,-10.837 7.036,-5.645 13.74,-11.661 20.196,-17.957 v -29.114 c -4.71,6.292 -9.54,12.491 -14.531,18.564 -5.654,6.88 -11.452,15.543 -19.251,20.145 -5.429,3.204 -10.989,2.904 -16.281,-0.355 -2.921,-1.799 -5.367,-4.306 -8.322,-6.046 -5.413,-3.188 -9.882,-1.862 -14.306,2.075 -4.062,3.615 -7.735,8.332 -13.474,9.131 -7.556,1.052 -13.569,-5.175 -18.497,-9.936 -14.76,-14.26 -30.222,-28.891 -49.77,-36.239 -21.943,-8.249 -45.851,-4.883 -62.372,12.206 z m 4.358,75.014 c 8.357,12.266 21.77,11.012 34.545,11.012 h 47.699 98.65 c 2.117,0 4.252,0.081 6.369,0 14.189,-0.542 24.725,-11.169 25.183,-25.37 0.248,-7.68 0,-15.41 0,-23.093 v -33.662 c -10.111,9.813 -21.109,19.853 -33.148,26.993 -3.81,2.26 -7.685,3.131 -11.884,1.318 -5.116,-2.208 -8.612,-8.216 -14.118,-9.426 -9.853,-2.164 -13.221,14.181 -23.401,13.998 -5.47,-0.098 -8.838,-3.044 -14.181,0.403 -3.493,2.254 -6.104,5.949 -7.912,9.609 -2.274,4.603 -3.392,9.701 -5.785,14.259 -4.164,7.929 -11.663,9.204 -18.981,3.928 -7.181,-5.179 -10.447,-14.261 -12.878,-22.405 -5.95,-19.93 -17.304,-38.282 -39.203,-42.122 -7.715,-1.353 -15.671,-0.809 -23.343,0.551 -3.92,0.696 -7.968,2.091 -11.97,2.346 v 43.497 c 0,9.454 -1.244,19.941 4.358,28.164 m 200.143,11.295 c -8.861,4.487 -20.207,3.069 -29.849,3.069 h -52.291 c -31.836,0 -63.683,0.24 -95.518,0 -16.685,-0.126 -29.738,-11.786 -30.195,-28.825 -0.23,-8.561 0,-17.159 0,-25.722 V 61.092 14.167 c 0,-8.98 -1.108,-18.984 3.069,-27.233 7.045,-13.914 20.509,-15.655 34.224,-15.655 h 46.263 104.483 6.934 c 18.002,0.606 28.535,14.737 28.535,31.765 v 34.817 115.903 41.27 c 0,13.08 -2.68,25.707 -15.655,32.278" /></g><g
           transform="translate(144.4105,132.0871)"
           id="g24"><path
             id="path26"
             style="fill:#000000;fill-opacity:1;fill-rule:nonzero;stroke:none"
             d="M 0,0 H 5.932 V -6.248 L 0,-7.519 Z m -2.966,-20.23 h 2.542 v 9.11 l 9.322,1.483 V 2.862 H -6.144 V 0 h 3.178 z" /></g><g
           transform="translate(262.7979,130.8159)"
           id="g28"><path
             id="path30"
             style="fill:#000000;fill-opacity:1;fill-rule:nonzero;stroke:none"
             d="M 0,0 H 5.932 V -6.248 L 0,-7.519 Z m -0.424,-20.23 v 9.11 l 9.322,1.483 V 2.862 H -3.176 l 0.21,-23.092 z" /></g><g
           transform="translate(159.311,136.2207)"
           id="g32"><path
             id="path34"
             style="fill:#000000;fill-opacity:1;fill-rule:nonzero;stroke:none"
             d="m 0,0 h -3.178 v -25.635 l 3.39,-0.068 z" /></g><g
           transform="translate(173.3296,113.9855)"
           id="g36"><path
             id="path38"
             style="fill:#000000;fill-opacity:1;fill-rule:nonzero;stroke:none"
             d="m 0,0 -6.78,-0.212 -0.211,22.669 h -3.178 V -3.178 l 10.169,0 z" /></g><g
           transform="translate(186.0412,113.9855)"
           id="g40"><path
             id="path42"
             style="fill:#000000;fill-opacity:1;fill-rule:nonzero;stroke:none"
             d="m 0,0 -6.78,-0.212 -0.211,22.669 h -3.178 V -3.178 l 10.169,0 z" /></g><g
           transform="translate(189.6192,119.4939)"
           id="g44"><path
             id="path46"
             style="fill:#000000;fill-opacity:1;fill-rule:nonzero;stroke:none"
             d="M 0,0 H -4.165 V 2.389 L 0,3.708 Z M 0.024,-8.686 H 3.413 L 5.108,16.949 H -6.12 V 14.407 H 1.083 V 6.356 L -7.391,5.508 v -7.839 h 7.415 z" /></g><g
           transform="translate(202.1157,130.5619)"
           id="g48"><path
             id="path50"
             style="fill:#000000;fill-opacity:1;fill-rule:nonzero;stroke:none"
             d="m 0,0 c 0,0 2.473,0.651 2.733,-0.781 0.261,-1.432 0,-19.264 0,-19.264 H 5.987 V 2.603 l -6.117,0.13 -0.13,2.994 h -2.994 l -0.13,-0.799 -1.041,-24.152 h 3.774 z" /></g><g
           transform="translate(253.5193,115.6702)"
           id="g52"><path
             id="path54"
             style="fill:#000000;fill-opacity:1;fill-rule:nonzero;stroke:none"
             d="M 0,0 -5.532,-0.747 V 8.785 H 0 Z m -0.34,12.359 h -7.83 v -16.51 h 7.83 V -6.356 H 3.234 V 18.22 l -17.532,1.059 V 15.358 H -0.34 Z" /></g><g
           transform="translate(221.8022,131.38)"
           id="g56"><path
             id="path58"
             style="fill:#000000;fill-opacity:1;fill-rule:nonzero;stroke:none"
             d="M 0,0 H 3.745 V -20.23 H 6.468 L 7.319,0 h 3.166 v -20.23 h 4.334 V 4.721 L -3.064,3.922 -4.085,-20.23 h 3.404 z" /></g><g
           transform="translate(287.8044,133.6783)"
           id="g60"><path
             id="path62"
             style="fill:#000000;fill-opacity:1;fill-rule:nonzero;stroke:none"
             d="m 0,0 h -2.894 l -0.851,-20.027 h -7.319 L -10.213,0 h -2.894 l -1.021,-23.431 13.277,-0.721 z" /></g><g
           transform="translate(143.228,101.4032)"
           id="g64"><path
             id="path66"
             style="fill:#000000;fill-opacity:1;fill-rule:nonzero;stroke:none"
             d="m 0,0 c 0.685,0 1.265,-0.221 1.74,-0.717 l 0.653,0.665 c -0.56,0.632 -1.37,0.937 -2.414,0.937 -1.865,0 -3.256,-1.306 -3.256,-3.077 0,-1.77 1.391,-3.076 3.298,-3.076 0.864,0 1.729,0.273 2.308,0.768 v 2.34 h -0.99 v -1.887 c -0.38,-0.232 -0.812,-0.337 -1.307,-0.337 -1.327,0 -2.276,0.928 -2.276,2.192 C -2.244,-0.917 -1.295,0 0,0" /></g><g
           transform="translate(152.5688,101.3608)"
           id="g68"><path
             id="path70"
             style="fill:#000000;fill-opacity:1;fill-rule:nonzero;stroke:none"
             d="m 0,0 v 0.844 h -4.374 v -5.986 h 4.49 v 0.854 h -3.467 v 1.77 h 2.982 v 0.832 H -3.351 V 0 Z" /></g><g
           transform="translate(157.6613,101.4032)"
           id="g72"><path
             id="path74"
             style="fill:#000000;fill-opacity:1;fill-rule:nonzero;stroke:none"
             d="m 0,0 c 1.275,0 2.224,-0.917 2.224,-2.192 0,-1.274 -0.949,-2.192 -2.224,-2.192 -1.274,0 -2.223,0.918 -2.223,2.192 C -2.223,-0.917 -1.274,0 0,0 m 0,-5.268 c 1.876,0 3.257,1.306 3.257,3.076 0,1.771 -1.381,3.077 -3.257,3.077 -1.865,0 -3.256,-1.306 -3.256,-3.077 0,-1.77 1.391,-3.076 3.256,-3.076" /></g><g
           transform="translate(167.1708,100.0967)"
           id="g76"><path
             id="path78"
             style="fill:#000000;fill-opacity:1;fill-rule:nonzero;stroke:none"
             d="M 0,0 C 0,-0.811 -0.547,-1.264 -1.591,-1.264 H -2.95 v 2.528 h 1.359 C -0.547,1.264 0,0.811 0,0 m -3.973,2.108 v -5.986 h 1.023 v 1.76 h 1.422 c 1.57,0 2.561,0.78 2.561,2.118 0,1.338 -0.991,2.108 -2.561,2.108 z" /></g><g
           transform="translate(171.0424,98.4529)"
           id="g80"><path
             id="path82"
             style="fill:#000000;fill-opacity:1;fill-rule:nonzero;stroke:none"
             d="M 0,0 1.254,2.824 2.498,0 Z m 0.748,3.752 -2.739,-5.986 h 1.001 l 0.632,1.422 H 2.856 L 3.478,-2.234 H 4.511 L 1.76,3.752 Z" /></g><g
           transform="translate(179.7392,98.8326)"
           id="g84"><path
             id="path86"
             style="fill:#000000;fill-opacity:1;fill-rule:nonzero;stroke:none"
             d="M 0,0 H -1.359 V 2.528 H 0 C 1.044,2.528 1.591,2.075 1.591,1.264 1.591,0.453 1.044,0 0,0 m 2.624,1.264 c 0,1.338 -0.99,2.108 -2.56,2.108 h -2.446 v -5.986 h 1.023 v 1.781 h 1.423 c 0.094,0 0.189,0 0.273,0.011 L 1.623,-2.614 H 2.73 l -1.423,1.981 c 0.832,0.316 1.317,0.97 1.317,1.897" /></g><g
           transform="translate(185.2656,99.2112)"
           id="g88"><path
             id="path90"
             style="fill:#000000;fill-opacity:1;fill-rule:nonzero;stroke:none"
             d="M 0,0 C 0,1.275 0.948,2.192 2.223,2.192 3.498,2.192 4.447,1.275 4.447,0 4.447,-1.274 3.498,-2.192 2.223,-2.192 0.948,-2.192 0,-1.274 0,0 m 4.268,-3.487 c -0.39,0 -0.727,0.147 -1.086,0.527 1.37,0.368 2.298,1.506 2.298,2.96 0,1.771 -1.381,3.077 -3.257,3.077 -1.865,0 -3.256,-1.306 -3.256,-3.077 0,-1.676 1.254,-2.94 2.972,-3.066 0.865,-0.896 1.497,-1.212 2.308,-1.212 0.622,0 1.149,0.21 1.549,0.675 L 5.301,-3.014 C 5.006,-3.33 4.647,-3.487 4.268,-3.487" /></g><g
           transform="translate(198.2108,98.7791)"
           id="g92"><path
             id="path94"
             style="fill:#000000;fill-opacity:1;fill-rule:nonzero;stroke:none"
             d="M 0,0 V 3.426 H -1.002 V 0.021 c 0,-1.18 -0.579,-1.781 -1.612,-1.781 -1.043,0 -1.612,0.612 -1.612,1.781 V 3.426 H -5.248 V 0 c 0,-1.675 0.979,-2.644 2.624,-2.644 C -0.98,-2.644 0,-1.675 0,0" /></g><g
           transform="translate(205.3588,101.3608)"
           id="g96"><path
             id="path98"
             style="fill:#000000;fill-opacity:1;fill-rule:nonzero;stroke:none"
             d="m 0,0 v 0.844 h -4.374 v -5.986 h 4.49 v 0.854 h -3.467 v 1.77 h 2.982 v 0.832 H -3.351 V 0 Z" /></g><g
           transform="translate(212.4349,97.0728)"
           id="g100"><path
             id="path102"
             style="fill:#000000;fill-opacity:1;fill-rule:nonzero;stroke:none"
             d="m 0,0 v 4.288 h 1.539 c 1.465,0 2.318,-0.822 2.318,-2.15 C 3.857,0.822 3.004,0 1.539,0 Z m 4.89,2.138 c 0,1.813 -1.287,2.994 -3.31,2.994 H -1.023 V -0.854 H 1.58 c 2.023,0 3.31,1.18 3.31,2.992" /></g><g
           transform="translate(224.0948,97.0728)"
           id="g104"><path
             id="path106"
             style="fill:#000000;fill-opacity:1;fill-rule:nonzero;stroke:none"
             d="m 0,0 h -3.467 v 1.77 h 2.982 v 0.832 h -2.982 v 1.686 h 3.351 V 5.132 H -4.49 V -0.854 H 0 Z" /></g><g
           transform="translate(231.0549,102.2048)"
           id="g108"><path
             id="path110"
             style="fill:#000000;fill-opacity:1;fill-rule:nonzero;stroke:none"
             d="m 0,0 h -1.023 v -5.986 h 4.237 v 0.854 H 0 Z" /></g><g
           transform="translate(238.729,97.0193)"
           id="g112"><path
             id="path114"
             style="fill:#000000;fill-opacity:1;fill-rule:nonzero;stroke:none"
             d="m 0,0 c -1.274,0 -2.223,0.918 -2.223,2.192 0,1.275 0.949,2.192 2.223,2.192 1.275,0 2.224,-0.917 2.224,-2.192 C 2.224,0.918 1.275,0 0,0 m 0,5.269 c -1.865,0 -3.256,-1.306 -3.256,-3.077 0,-1.77 1.391,-3.076 3.256,-3.076 1.876,0 3.257,1.306 3.257,3.076 0,1.771 -1.381,3.077 -3.257,3.077" /></g><g
           transform="translate(246.0576,96.999)"
           id="g116"><path
             id="path118"
             style="fill:#000000;fill-opacity:1;fill-rule:nonzero;stroke:none"
             d="m 0,0 c -0.791,0 -1.56,0.274 -2.023,0.652 l -0.401,-0.8 c 0.496,-0.432 1.455,-0.716 2.382,-0.716 1.528,0 2.434,0.706 2.434,1.791 0,2.202 -3.625,1.264 -3.625,2.644 0,0.476 0.4,0.854 1.359,0.854 0.559,0 1.159,-0.115 1.676,-0.474 L 2.171,4.773 C 1.644,5.132 0.874,5.29 0.158,5.29 -1.339,5.29 -2.255,4.573 -2.255,3.509 -2.255,1.253 1.37,2.222 1.37,0.832 1.37,0.379 1.001,0 0,0" /></g><g
           transform="translate(257.7387,98.4529)"
           id="g120"><path
             id="path122"
             style="fill:#000000;fill-opacity:1;fill-rule:nonzero;stroke:none"
             d="m 0,0 h -2.498 l 1.254,2.824 z m -4.489,-2.234 h 1.001 l 0.632,1.422 H 0.358 L 0.98,-2.234 H 2.013 L -0.738,3.752 H -1.75 Z" /></g><g
           transform="translate(262.3999,102.2048)"
           id="g124"><path
             id="path126"
             style="fill:#000000;fill-opacity:1;fill-rule:nonzero;stroke:none"
             d="M 0,0 H -0.843 V -5.986 H 0.18 V -1.76 L 3.636,-5.986 H 4.479 V 0 H 3.457 v -4.247 z" /></g><g
           transform="translate(270.7393,101.3608)"
           id="g128"><path
             id="path130"
             style="fill:#000000;fill-opacity:1;fill-rule:nonzero;stroke:none"
             d="m 0,0 h 1.539 c 1.465,0 2.318,-0.822 2.318,-2.15 0,-1.316 -0.853,-2.138 -2.318,-2.138 H 0 Z M -1.023,-5.142 H 1.58 c 2.023,0 3.31,1.18 3.31,2.992 0,1.813 -1.287,2.994 -3.31,2.994 h -2.603 z" /></g><g
           transform="translate(282.2831,101.3608)"
           id="g132"><path
             id="path134"
             style="fill:#000000;fill-opacity:1;fill-rule:nonzero;stroke:none"
             d="m 0,0 v 0.844 h -4.374 v -5.986 h 4.49 v 0.854 h -3.467 v 1.77 h 2.982 v 0.832 H -3.351 V 0 Z" /></g><g
           transform="translate(286.6274,101.4244)"
           id="g136"><path
             id="path138"
             style="fill:#000000;fill-opacity:1;fill-rule:nonzero;stroke:none"
             d="m 0,0 c 0.558,0 1.159,-0.115 1.676,-0.474 l 0.368,0.821 c -0.527,0.36 -1.296,0.517 -2.013,0.517 -1.496,0 -2.413,-0.717 -2.413,-1.781 0,-2.255 3.626,-1.286 3.626,-2.676 0,-0.454 -0.37,-0.832 -1.37,-0.832 -0.791,0 -1.56,0.273 -2.024,0.652 l -0.4,-0.801 c 0.495,-0.432 1.454,-0.716 2.381,-0.716 1.528,0 2.435,0.706 2.435,1.792 0,2.202 -3.625,1.264 -3.625,2.644 C -1.359,-0.379 -0.959,0 0,0" /></g><g
           transform="translate(202.4268,89.356)"
           id="g140"><path
             id="path142"
             style="fill:#000000;fill-opacity:1;fill-rule:nonzero;stroke:none"
             d="M 0,0 -2.125,-3.531 -4.303,0 h -1.396 v -6.08 h 1.554 v 3.215 l 1.618,-2.57 h 0.751 l 1.628,2.675 0.011,-3.32 H 1.427 L 1.406,0 Z" /></g><g
           transform="translate(207.9818,85.6874)"
           id="g144"><path
             id="path146"
             style="fill:#000000;fill-opacity:1;fill-rule:nonzero;stroke:none"
             d="M 0,0 0.92,2.199 1.829,0 Z m 0.095,3.669 -2.728,-6.08 h 1.618 l 0.507,1.205 h 2.844 l 0.497,-1.205 h 1.65 l -2.739,6.08 z" /></g><g
           transform="translate(217.8525,85.9512)"
           id="g148"><path
             id="path150"
             style="fill:#000000;fill-opacity:1;fill-rule:nonzero;stroke:none"
             d="m 0,0 c 0,-0.941 -0.412,-1.427 -1.206,-1.427 -0.803,0 -1.226,0.486 -1.226,1.427 v 3.405 h -1.671 v -3.457 c 0,-1.692 1.068,-2.739 2.876,-2.739 1.819,0 2.876,1.047 2.876,2.739 V 3.405 H 0 Z" /></g><g
           transform="translate(223.5253,89.356)"
           id="g152"><path
             id="path154"
             style="fill:#000000;fill-opacity:1;fill-rule:nonzero;stroke:none"
             d="m 0,0 h -1.671 v -6.08 h 4.642 v 1.301 H 0 Z" /></g><g
           transform="translate(229.8333,85.7501)"
           id="g156"><path
             id="path158"
             style="fill:#000000;fill-opacity:1;fill-rule:nonzero;stroke:none"
             d="M 0,0 H 2.77 V 1.216 H 0 v 1.111 h 3.13 v 1.279 h -4.78 v -6.08 h 4.896 v 1.279 l -3.246,0 z" /></g><g
           transform="translate(184.2327,86.1843)"
           id="g160"><path
             id="path162"
             style="fill:#000000;fill-opacity:1;fill-rule:nonzero;stroke:none"
             d="m 0,0 h -44.281 c -0.251,0 -0.455,-0.203 -0.455,-0.454 0,-0.251 0.204,-0.455 0.455,-0.455 H 0 c 0.251,0 0.454,0.204 0.454,0.455 C 0.454,-0.203 0.251,0 0,0" /></g><g
           transform="translate(290.2309,86.1843)"
           id="g164"><path
             id="path166"
             style="fill:#000000;fill-opacity:1;fill-rule:nonzero;stroke:none"
             d="m 0,0 h -44.281 c -0.251,0 -0.455,-0.203 -0.455,-0.454 0,-0.251 0.204,-0.455 0.455,-0.455 H 0 c 0.251,0 0.454,0.204 0.454,0.455 C 0.454,-0.203 0.251,0 0,0" /></g></g></g></g></svg>